<?xml version="1.0" ?>
<svg viewBox="0 0 24 24" xmlns="http://www.w3.org/2000/svg">
    <g data-name="Layer 2" id="Layer_2">
        <path d="M21.53,10.15a1,1,0,0,0-1,0L18,11.39V10a1,1,0,0,0-1-1H15.82A2.77,2.77,0,0,0,16,8a3,3,0,0,0-4.37-2.67A4,4,0,1,0,4.54,9H3a1,1,0,0,0-1,1V20a1,1,0,0,0,1,1H17a1,1,0,0,0,1-1V18.62l2.55,1.27A1,1,0,0,0,21,20a1,1,0,0,0,.53-.15A1,1,0,0,0,22,19V11A1,1,0,0,0,21.53,10.15ZM9,18H5V16H9ZM8,9a2,2,0,1,1,2-2A2,2,0,0,1,8,9Zm5,0a1,1,0,1,1,1-1A1,1,0,0,1,13,9Z" fill="#ffffff"/>
    </g>
</svg>
